PathFileType  4	(X/Y/Z) C:\Users\antoi\Documents\MyRepositories\mobilecap\ResultsAnalysis
DataRate	CameraRate	NumFrames	NumMarkers	Units	OrigDataRate	OrigDataStartFrame	OrigNumFrames
100.0	100.0	4	51	mm	100.0	1	261
Frame#	Time	r_knee			r_shank_antsup			r_ankle			r_calc			r_5meta			r_toe			L_knee			L_shank_antsup			L_ankle			L_calc			L_5meta			L_toe			r_sh2			r_sh3			r_sh4			L_sh2			L_sh3			r_thigh1			r_thigh2			r_thigh3			r_thigh4			r_thigh5			L_thigh1			L_thigh2			L_thigh3			L_thigh4			r.ASIS			r.PSIS			L.ASIS			L.PSIS			C7			R_Shoulder			L_Shoulder			R_Sternum			L_Sternum			R_humerus			R_elbow_med			R_elbow_lat			R_forearm			R_wrist_radius			R_wrist_ulna			L_humerus			L_elbow_med			L_elbow_lat			L_forearm			L_wrist_radius			L_wrist_ulna			R_HJC			L_HJC			R_HJC_reg			L_HJC_reg			
		X1	Y1	Z1	X2	Y2	Z2	X3	Y3	Z3	X4	Y4	Z4	X5	Y5	Z5	X6	Y6	Z6	X7	Y7	Z7	X8	Y8	Z8	X9	Y9	Z9	X10	Y10	Z10	X11	Y11	Z11	X12	Y12	Z12	X13	Y13	Z13	X14	Y14	Z14	X15	Y15	Z15	X16	Y16	Z16	X17	Y17	Z17	X18	Y18	Z18	X19	Y19	Z19	X20	Y20	Z20	X21	Y21	Z21	X22	Y22	Z22	X23	Y23	Z23	X24	Y24	Z24	X25	Y25	Z25	X26	Y26	Z26	X27	Y27	Z27	X28	Y28	Z28	X29	Y29	Z29	X30	Y30	Z30	X31	Y31	Z31	X32	Y32	Z32	X33	Y33	Z33	X34	Y34	Z34	X35	Y35	Z35	X36	Y36	Z36	X37	Y37	Z37	X38	Y38	Z38	X39	Y39	Z39	X40	Y40	Z40	X41	Y41	Z41	X42	Y42	Z42	X43	Y43	Z43	X44	Y44	Z44	X45	Y45	Z45	X46	Y46	Z46	X47	Y47	Z47	X48	Y48	Z48	X49	Y49	Z49	X50	Y50	Z50	X51	Y51	Z51	

1	0.00000000	-1193.85071	853.88500	-413.93496	-1167.19971	757.63818	-429.20001	-1260.59976	430.09075	-466.10730	-1345.69283	382.56158	-514.34087	-1149.87610	355.76853	-424.73498	-1091.82282	383.24356	-488.46233	-1222.71618	856.07569	-720.53104	-1228.59849	765.52683	-740.93317	-1279.80272	432.13210	-676.59651	-1353.76522	383.07514	-615.21837	-1170.77991	359.31448	-719.80188	-1106.39664	385.63079	-660.95574	-1190.66440	648.89654	-408.05887	-1227.29159	778.08351	-385.10649	-1268.97223	669.90629	-383.81128	-1317.11300	777.22735	-725.49733	-1318.71731	655.17941	-718.97359	-1108.04776	1173.21583	-382.66587	-1105.11086	1063.68031	-397.47807	-1209.60233	1051.86621	-383.29097	-1218.94193	1164.52505	-374.58439	-1158.15251	1034.97472	-369.06841	-1128.05549	1141.52048	-740.06699	-1128.83036	1001.48772	-727.22136	-1238.15675	1141.10610	-747.23356	-1244.14232	1003.88661	-736.59514	-1092.21575	1391.62306	-427.64505	-1278.70335	1404.29903	-487.88951	-1104.87225	1389.67694	-677.80287	-1286.90387	1408.17699	-596.99270	-1176.88994	1957.51204	-542.31504	-1132.10598	1883.36980	-380.35660	-1169.54952	1890.47861	-710.65412	-1076.20607	1842.23332	-519.60332	-1083.24330	1844.74354	-578.42001	-1137.46595	1723.44042	-318.73542	-1250.28767	1527.13694	-359.78033	-1214.57423	1543.88852	-284.68050	-1149.57860	1381.05830	-272.11085	-1103.21674	1296.00099	-285.89261	-1144.75814	1296.08480	-263.91756	-1210.26951	1765.87493	-783.46498	-1265.26520	1534.45847	-709.10732	-1262.76579	1544.95611	-790.35365	-1221.61934	1483.21829	-818.02516	-1160.23348	1314.35564	-827.42740	-1201.18030	1305.32933	-834.33002	-1174.26221	1275.26675	-443.96876	-1189.81387	1281.43668	-650.25216	-1150.88164	1304.60558	-461.57790	-1163.26486	1310.46152	-626.32976	
2	0.01000000	-1193.89885	853.81003	-413.89778	-1167.19200	757.65076	-429.19275	-1260.65106	430.03852	-466.12591	-1346.02037	382.66067	-514.46624	-1149.88598	355.67800	-424.70337	-1091.68343	383.25566	-488.41651	-1222.61568	855.89622	-720.27649	-1228.34971	765.51379	-740.87907	-1279.79008	432.12237	-676.59104	-1353.81482	383.10419	-615.23160	-1170.80341	359.28673	-719.84283	-1106.44286	385.62721	-660.83907	-1190.67199	648.88556	-408.06376	-1227.54318	778.20262	-385.02958	-1268.98551	669.89451	-383.82289	-1316.94183	777.27901	-725.52655	-1318.59423	655.17535	-718.94764	-1107.85499	1173.29239	-382.50942	-1105.03182	1063.56298	-397.44869	-1209.61748	1051.84357	-383.31769	-1218.95107	1164.64309	-374.55039	-1158.28979	1034.80082	-369.16041	-1127.59350	1141.36649	-739.95262	-1128.61227	1001.45572	-727.19602	-1237.92398	1140.96569	-747.06866	-1243.93949	1003.82882	-736.64512	-1092.17945	1391.64549	-427.62866	-1278.66870	1404.34401	-487.95978	-1104.77712	1389.58520	-677.79462	-1286.78161	1408.11800	-596.92069	-1175.95523	1957.41835	-542.63592	-1131.12826	1883.38753	-380.52517	-1168.38359	1890.46612	-710.84768	-1075.43539	1842.03998	-519.74683	-1082.28141	1844.90067	-578.94513	-1136.75151	1723.57927	-319.18520	-1250.57302	1527.81982	-359.49120	-1214.83831	1544.61831	-284.41331	-1149.44797	1381.69828	-271.79419	-1102.79120	1296.64281	-285.81672	-1144.43042	1296.70748	-263.76722	-1209.38332	1766.16982	-783.27615	-1265.89849	1534.99285	-709.85053	-1263.26550	1545.68632	-791.06580	-1221.98522	1483.66551	-818.03524	-1160.15163	1315.03427	-827.80216	-1201.07573	1305.95351	-834.85960	-1174.22290	1275.29932	-443.89355	-1189.73844	1281.36091	-650.18287	-1150.91136	1304.67617	-461.51933	-1163.17981	1310.38317	-626.28875	
3	0.02000000	-1193.95056	853.80964	-413.90347	-1167.20983	757.64763	-429.16054	-1260.63015	430.08098	-466.10721	-1346.20291	382.60095	-514.38271	-1149.89273	355.66857	-424.68985	-1091.68236	383.26177	-488.40680	-1222.39592	855.87089	-720.26035	-1228.12505	765.50201	-740.89004	-1279.77342	432.13685	-676.58424	-1353.86863	383.11192	-615.22507	-1170.83202	359.32086	-719.87196	-1106.45067	385.64580	-660.79374	-1190.65585	648.90608	-408.05549	-1227.71203	778.22048	-385.00847	-1268.99828	669.89054	-383.83986	-1316.74988	777.33253	-725.52584	-1318.47711	655.18189	-718.86888	-1107.77792	1173.30353	-382.47709	-1105.10231	1063.54703	-397.42754	-1209.62623	1051.84489	-383.32757	-1218.91433	1164.65117	-374.57755	-1158.28734	1034.79411	-369.19053	-1127.28786	1141.30724	-739.90903	-1128.40143	1001.44869	-727.07508	-1237.60536	1140.95861	-747.10509	-1243.71452	1003.80984	-736.75460	-1092.18668	1391.68692	-427.64623	-1278.60653	1404.43903	-488.10586	-1104.39699	1389.62790	-678.17997	-1286.63767	1408.12270	-596.99261	-1174.84164	1957.36831	-542.84725	-1129.95299	1883.56426	-380.55157	-1167.05292	1890.45967	-711.11583	-1074.52317	1841.86706	-519.82224	-1081.60144	1844.42586	-578.68054	-1136.12977	1723.75910	-319.42893	-1250.75677	1528.59493	-359.33554	-1215.24394	1545.39364	-284.15257	-1149.52222	1382.45336	-271.57553	-1102.52180	1297.58081	-285.57815	-1144.18983	1297.46314	-263.62860	-1208.60019	1766.46897	-783.09014	-1267.25857	1535.36435	-710.66427	-1263.94346	1546.43475	-791.74977	-1222.48591	1484.38986	-818.73952	-1160.26889	1315.83697	-828.29415	-1201.15938	1306.63558	-835.57099	-1174.13533	1275.35096	-444.03302	-1189.53687	1281.40127	-650.33120	-1150.85454	1304.71866	-461.57007	-1163.02558	1310.30054	-626.58188	
4	0.03000000	-1193.97779	853.85708	-413.93212	-1167.22501	757.65619	-429.14180	-1260.60097	430.15594	-466.08174	-1346.31970	382.51901	-514.25979	-1149.91279	355.71499	-424.70741	-1091.76124	383.26942	-488.42368	-1221.98614	856.05245	-720.59572	-1227.89608	765.49773	-740.95005	-1279.74765	432.17324	-676.58373	-1353.94260	383.08628	-615.18455	-1170.84525	359.36896	-719.87122	-1106.41884	385.68849	-660.85445	-1190.68956	648.94119	-408.04103	-1227.58502	778.22081	-385.05141	-1269.00822	669.89173	-383.85723	-1316.55610	777.37846	-725.51114	-1318.33347	655.20110	-718.83574	-1107.78353	1173.29057	-382.51134	-1105.21555	1063.61839	-397.47387	-1209.60278	1051.85490	-383.31193	-1218.82663	1164.60224	-374.66864	-1158.18030	1034.91188	-369.15034	-1127.07114	1141.33952	-739.92048	-1128.19016	1001.45164	-726.90259	-1237.21642	1141.05380	-747.41208	-1243.44179	1003.83937	-736.92949	-1092.26004	1391.73930	-427.68403	-1278.54363	1404.52739	-488.25351	-1103.87508	1389.74989	-678.78494	-1286.50452	1408.19260	-597.17762	-1173.52334	1957.34520	-543.00286	-1128.80567	1884.01845	-380.72363	-1165.58315	1890.43291	-711.34677	-1073.47771	1841.66645	-519.86996	-1081.31628	1842.99346	-577.47763	-1135.68212	1724.00248	-319.40281	-1251.16658	1529.41697	-359.10951	-1215.84428	1546.25631	-283.84442	-1149.82596	1383.31558	-271.41286	-1102.46024	1298.72784	-285.22365	-1144.10156	1298.40505	-263.37313	-1207.91522	1766.76422	-783.08509	-1268.77936	1535.78227	-711.64282	-1264.68073	1547.21409	-792.56448	-1223.17537	1485.24659	-819.77064	-1160.78435	1316.65906	-829.10849	-1201.63478	1307.31682	-836.47491	-1174.04667	1275.40162	-444.30408	-1189.28439	1281.51799	-650.61250	-1150.74372	1304.67451	-461.73404	-1162.83077	1310.23855	-627.10869	
